<svg version="1.1" viewBox="0.0 0.0 587.2887139107612 100.0" fill="none" stroke="none" stroke-linecap="square" stroke-miterlimit="10" xmlns:xlink="http://www.w3.org/1999/xlink" xmlns="http://www.w3.org/2000/svg"><clipPath id="p.0"><path d="m0 0l587.2887 0l0 100.0l-587.2887 0l0 -100.0z" clip-rule="nonzero"/></clipPath><g clip-path="url(#p.0)"><path fill="#000000" fill-opacity="0.0" d="m0 0l587.2887 0l0 100.0l-587.2887 0z" fill-rule="evenodd"/><path fill="#000000" fill-opacity="0.0" d="m44.564377 49.27784l498.67712 0" fill-rule="evenodd"/><path stroke="#000000" stroke-width="1.0" stroke-linejoin="round" stroke-linecap="butt" stroke-dasharray="1.0,3.0" d="m44.564377 49.27784l498.67712 0" fill-rule="evenodd"/><path fill="#ffffff" d="m28.816343 49.27784l0 0c0 -4.3486977 3.5253162 -7.874016 7.8740177 -7.874016l0 0c2.0883179 0 4.0911026 0.8295822 5.567768 2.306244c1.4766655 1.4766655 2.3062477 3.479454 2.3062477 5.567772l0 0c0 4.3486977 -3.5253181 7.874016 -7.874016 7.874016l0 0c-4.3487015 0 -7.8740177 -3.5253181 -7.8740177 -7.874016z" fill-rule="evenodd"/><path stroke="#000000" stroke-width="1.0" stroke-linejoin="round" stroke-linecap="butt" d="m28.816343 49.27784l0 0c0 -4.3486977 3.5253162 -7.874016 7.8740177 -7.874016l0 0c2.0883179 0 4.0911026 0.8295822 5.567768 2.306244c1.4766655 1.4766655 2.3062477 3.479454 2.3062477 5.567772l0 0c0 4.3486977 -3.5253181 7.874016 -7.874016 7.874016l0 0c-4.3487015 0 -7.8740177 -3.5253181 -7.8740177 -7.874016z" fill-rule="evenodd"/><path fill="#ffffff" d="m80.257286 49.27784l0 0c0 -4.3486977 3.525322 -7.874016 7.874016 -7.874016l0 0c2.0883179 0 4.09111 0.8295822 5.567772 2.306244c1.4766617 1.4766655 2.306244 3.479454 2.306244 5.567772l0 0c0 4.3486977 -3.5253143 7.874016 -7.874016 7.874016l0 0c-4.348694 0 -7.874016 -3.5253181 -7.874016 -7.874016z" fill-rule="evenodd"/><path stroke="#000000" stroke-width="1.0" stroke-linejoin="round" stroke-linecap="butt" d="m80.257286 49.27784l0 0c0 -4.3486977 3.525322 -7.874016 7.874016 -7.874016l0 0c2.0883179 0 4.09111 0.8295822 5.567772 2.306244c1.4766617 1.4766655 2.306244 3.479454 2.306244 5.567772l0 0c0 4.3486977 -3.5253143 7.874016 -7.874016 7.874016l0 0c-4.348694 0 -7.874016 -3.5253181 -7.874016 -7.874016z" fill-rule="evenodd"/><path fill="#ffffff" d="m131.69823 49.27784l0 0c0 -4.3486977 3.5253296 -7.874016 7.8740234 -7.874016l0 0c2.0883179 0 4.09111 0.8295822 5.5677643 2.306244c1.4766693 1.4766655 2.306244 3.479454 2.306244 5.567772l0 0c0 4.3486977 -3.5253143 7.874016 -7.874008 7.874016l0 0c-4.348694 0 -7.8740234 -3.5253181 -7.8740234 -7.874016z" fill-rule="evenodd"/><path stroke="#000000" stroke-width="1.0" stroke-linejoin="round" stroke-linecap="butt" d="m131.69823 49.27784l0 0c0 -4.3486977 3.5253296 -7.874016 7.8740234 -7.874016l0 0c2.0883179 0 4.09111 0.8295822 5.5677643 2.306244c1.4766693 1.4766655 2.306244 3.479454 2.306244 5.567772l0 0c0 4.3486977 -3.5253143 7.874016 -7.874008 7.874016l0 0c-4.348694 0 -7.8740234 -3.5253181 -7.8740234 -7.874016z" fill-rule="evenodd"/><path fill="#ffffff" d="m183.13918 49.27784l0 0c0 -4.3486977 3.5253143 -7.874016 7.8740234 -7.874016l0 0c2.0883179 0 4.091095 0.8295822 5.5677643 2.306244c1.4766693 1.4766655 2.306244 3.479454 2.306244 5.567772l0 0c0 4.3486977 -3.5253143 7.874016 -7.874008 7.874016l0 0c-4.348709 0 -7.8740234 -3.5253181 -7.8740234 -7.874016z" fill-rule="evenodd"/><path stroke="#000000" stroke-width="1.0" stroke-linejoin="round" stroke-linecap="butt" d="m183.13918 49.27784l0 0c0 -4.3486977 3.5253143 -7.874016 7.8740234 -7.874016l0 0c2.0883179 0 4.091095 0.8295822 5.5677643 2.306244c1.4766693 1.4766655 2.306244 3.479454 2.306244 5.567772l0 0c0 4.3486977 -3.5253143 7.874016 -7.874008 7.874016l0 0c-4.348709 0 -7.8740234 -3.5253181 -7.8740234 -7.874016z" fill-rule="evenodd"/><path fill="#ffffff" d="m234.58012 49.27784l0 0c0 -4.3486977 3.5253143 -7.874016 7.874008 -7.874016l0 0c2.0883331 0 4.09111 0.8295822 5.5677795 2.306244c1.4766693 1.4766655 2.306244 3.479454 2.306244 5.567772l0 0c0 4.3486977 -3.5253143 7.874016 -7.8740234 7.874016l0 0c-4.348694 0 -7.874008 -3.5253181 -7.874008 -7.874016z" fill-rule="evenodd"/><path stroke="#000000" stroke-width="1.0" stroke-linejoin="round" stroke-linecap="butt" d="m234.58012 49.27784l0 0c0 -4.3486977 3.5253143 -7.874016 7.874008 -7.874016l0 0c2.0883331 0 4.09111 0.8295822 5.5677795 2.306244c1.4766693 1.4766655 2.306244 3.479454 2.306244 5.567772l0 0c0 4.3486977 -3.5253143 7.874016 -7.8740234 7.874016l0 0c-4.348694 0 -7.874008 -3.5253181 -7.874008 -7.874016z" fill-rule="evenodd"/><path fill="#ffffff" d="m286.02106 49.27784l0 0c0 -4.3486977 3.5253296 -7.874016 7.8740234 -7.874016l0 0c2.0883179 0 4.091095 0.8295822 5.5677795 2.306244c1.476654 1.4766655 2.306244 3.479454 2.306244 5.567772l0 0c0 4.3486977 -3.5253296 7.874016 -7.8740234 7.874016l0 0c-4.348694 0 -7.8740234 -3.5253181 -7.8740234 -7.874016z" fill-rule="evenodd"/><path stroke="#000000" stroke-width="1.0" stroke-linejoin="round" stroke-linecap="butt" d="m286.02106 49.27784l0 0c0 -4.3486977 3.5253296 -7.874016 7.8740234 -7.874016l0 0c2.0883179 0 4.091095 0.8295822 5.5677795 2.306244c1.476654 1.4766655 2.306244 3.479454 2.306244 5.567772l0 0c0 4.3486977 -3.5253296 7.874016 -7.8740234 7.874016l0 0c-4.348694 0 -7.8740234 -3.5253181 -7.8740234 -7.874016z" fill-rule="evenodd"/><path fill="#ffffff" d="m337.462 49.27784l0 0c0 -4.3486977 3.5253296 -7.874016 7.8740234 -7.874016l0 0c2.0883179 0 4.091095 0.8295822 5.5677795 2.306244c1.476654 1.4766655 2.306244 3.479454 2.306244 5.567772l0 0c0 4.3486977 -3.5253296 7.874016 -7.8740234 7.874016l0 0c-4.348694 0 -7.8740234 -3.5253181 -7.8740234 -7.874016z" fill-rule="evenodd"/><path stroke="#000000" stroke-width="1.0" stroke-linejoin="round" stroke-linecap="butt" d="m337.462 49.27784l0 0c0 -4.3486977 3.5253296 -7.874016 7.8740234 -7.874016l0 0c2.0883179 0 4.091095 0.8295822 5.5677795 2.306244c1.476654 1.4766655 2.306244 3.479454 2.306244 5.567772l0 0c0 4.3486977 -3.5253296 7.874016 -7.8740234 7.874016l0 0c-4.348694 0 -7.8740234 -3.5253181 -7.8740234 -7.874016z" fill-rule="evenodd"/><path fill="#ffffff" d="m388.90295 49.27784l0 0c0 -4.3486977 3.5253296 -7.874016 7.8740234 -7.874016l0 0c2.0883179 0 4.091095 0.8295822 5.5677795 2.306244c1.476654 1.4766655 2.306244 3.479454 2.306244 5.567772l0 0c0 4.3486977 -3.5253296 7.874016 -7.8740234 7.874016l0 0c-4.348694 0 -7.8740234 -3.5253181 -7.8740234 -7.874016z" fill-rule="evenodd"/><path stroke="#000000" stroke-width="1.0" stroke-linejoin="round" stroke-linecap="butt" d="m388.90295 49.27784l0 0c0 -4.3486977 3.5253296 -7.874016 7.8740234 -7.874016l0 0c2.0883179 0 4.091095 0.8295822 5.5677795 2.306244c1.476654 1.4766655 2.306244 3.479454 2.306244 5.567772l0 0c0 4.3486977 -3.5253296 7.874016 -7.8740234 7.874016l0 0c-4.348694 0 -7.8740234 -3.5253181 -7.8740234 -7.874016z" fill-rule="evenodd"/><path fill="#ffffff" d="m440.3439 49.27784l0 0c0 -4.3486977 3.5253296 -7.874016 7.8740234 -7.874016l0 0c2.0883179 0 4.091095 0.8295822 5.567749 2.306244c1.4766846 1.4766655 2.3062744 3.479454 2.3062744 5.567772l0 0c0 4.3486977 -3.5253296 7.874016 -7.8740234 7.874016l0 0c-4.348694 0 -7.8740234 -3.5253181 -7.8740234 -7.874016z" fill-rule="evenodd"/><path stroke="#000000" stroke-width="1.0" stroke-linejoin="round" stroke-linecap="butt" d="m440.3439 49.27784l0 0c0 -4.3486977 3.5253296 -7.874016 7.8740234 -7.874016l0 0c2.0883179 0 4.091095 0.8295822 5.567749 2.306244c1.4766846 1.4766655 2.3062744 3.479454 2.3062744 5.567772l0 0c0 4.3486977 -3.5253296 7.874016 -7.8740234 7.874016l0 0c-4.348694 0 -7.8740234 -3.5253181 -7.8740234 -7.874016z" fill-rule="evenodd"/><path fill="#ffffff" d="m491.78485 49.27784l0 0c0 -4.3486977 3.525299 -7.874016 7.8740234 -7.874016l0 0c2.0883179 0 4.091095 0.8295822 5.567749 2.306244c1.4766846 1.4766655 2.306244 3.479454 2.306244 5.567772l0 0c0 4.3486977 -3.525299 7.874016 -7.873993 7.874016l0 0c-4.3487244 0 -7.8740234 -3.5253181 -7.8740234 -7.874016z" fill-rule="evenodd"/><path stroke="#000000" stroke-width="1.0" stroke-linejoin="round" stroke-linecap="butt" d="m491.78485 49.27784l0 0c0 -4.3486977 3.525299 -7.874016 7.8740234 -7.874016l0 0c2.0883179 0 4.091095 0.8295822 5.567749 2.306244c1.4766846 1.4766655 2.306244 3.479454 2.306244 5.567772l0 0c0 4.3486977 -3.525299 7.874016 -7.873993 7.874016l0 0c-4.3487244 0 -7.8740234 -3.5253181 -7.8740234 -7.874016z" fill-rule="evenodd"/><path fill="#ffffff" d="m543.22577 49.27784l0 0c0 -4.3486977 3.5253296 -7.874016 7.8740234 -7.874016l0 0c2.0883179 0 4.0911255 0.8295822 5.56781 2.306244c1.4766235 1.4766655 2.3062134 3.479454 2.3062134 5.567772l0 0c0 4.3486977 -3.5253296 7.874016 -7.8740234 7.874016l0 0c-4.348694 0 -7.8740234 -3.5253181 -7.8740234 -7.874016z" fill-rule="evenodd"/><path stroke="#000000" stroke-width="1.0" stroke-linejoin="round" stroke-linecap="butt" d="m543.22577 49.27784l0 0c0 -4.3486977 3.5253296 -7.874016 7.8740234 -7.874016l0 0c2.0883179 0 4.0911255 0.8295822 5.56781 2.306244c1.4766235 1.4766655 2.3062134 3.479454 2.3062134 5.567772l0 0c0 4.3486977 -3.5253296 7.874016 -7.8740234 7.874016l0 0c-4.348694 0 -7.8740234 -3.5253181 -7.8740234 -7.874016z" fill-rule="evenodd"/><path fill="#000000" fill-opacity="0.0" d="m28.816343 49.27784c-12.5 0 -23.858267 7.933071 -25.0 16.437004c-1.1417322 8.503937 7.9330707 17.578743 16.437008 16.437012c8.503937 -1.1417313 16.43701 -12.5 16.43701 -25.0" fill-rule="evenodd"/><path stroke="#000000" stroke-width="1.0" stroke-linejoin="round" stroke-linecap="butt" d="m28.816345 49.27784c-12.500002 0 -23.858269 7.933071 -25.000002 16.437012c-1.1417322 8.503937 7.9330707 17.578735 16.437008 16.437004c4.2519703 -0.5708618 8.361221 -3.6958618 11.407482 -8.240646c1.5231304 -2.2723923 2.7805119 -4.8997345 3.6571102 -7.740219c0.21915054 -0.71012115 0.4145012 -1.4335709 0.5842552 -2.1681213c0.042438507 -0.18363953 0.083278656 -0.3679695 0.12248993 -0.55295944l0.06639862 -0.32805634" fill-rule="evenodd"/><path fill="#000000" stroke="#000000" stroke-width="1.0" stroke-linecap="butt" d="m37.734562 63.286827l-1.1902161 -4.680378l-2.096733 4.3504333z" fill-rule="evenodd"/><path fill="#000000" fill-opacity="0.0" d="m0.9619105 44.755905l38.48819 0l0 42.015747l-38.48819 0z" fill-rule="evenodd"/><path fill="#000000" d="m19.446285 67.5509l-9.640625 0l0 -0.671875l9.640625 0l0 0.671875zm5.1875 -8.828125l-2.59375 8.953125l1.046875 -0.875q1.703125 -1.453125 2.203125 -2.140625q0.171875 -0.21875 0.171875 -0.34375q0 -0.078125 -0.0625 -0.15625q-0.046875 -0.078125 -0.21875 -0.109375q-0.15625 -0.046875 -0.546875 -0.046875l-0.328125 0l0.109375 -0.359375l3.96875 0l-0.078125 0.359375q-0.6875 0.03125 -1.1875 0.21875q-0.5 0.171875 -0.953125 0.515625q-0.921875 0.671875 -1.21875 0.9375l-0.78125 0.703125q0.203125 0.65625 0.484375 1.828125q0.5 1.953125 0.671875 2.3125q0.171875 0.359375 0.359375 0.359375q0.15625 0 0.359375 -0.15625q0.46875 -0.34375 1.015625 -1.09375l0.3125 0.21875q-0.984375 1.25 -1.515625 1.65625q-0.53125 0.390625 -0.96875 0.390625q-0.390625 0 -0.59375 -0.296875q-0.359375 -0.546875 -1.203125 -4.234375l-1.25 1.078125l-0.9375 3.234375l-1.421875 0l3.015625 -10.390625l0.265625 -0.890625q0.03125 -0.21875 0.03125 -0.390625q0 -0.21875 -0.171875 -0.359375q-0.15625 -0.15625 -0.484375 -0.15625q-0.203125 0 -0.65625 0.09375l0 -0.328125l3.15625 -0.53125z" fill-rule="nonzero"/><path fill="#000000" fill-opacity="0.0" d="m36.69036 41.403824c0 -12.5 12.858265 -25.007875 25.716534 -25.0c12.858265 0.007873535 25.716534 12.531496 25.716534 25.062992" fill-rule="evenodd"/><path stroke="#000000" stroke-width="1.0" stroke-linejoin="round" stroke-linecap="butt" d="m36.69036 41.403824c0 -12.500002 12.858269 -25.007874 25.716534 -25.0c6.4291344 0.0039367676 12.858273 3.1368103 17.680119 7.8351364c2.4109268 2.349163 4.4200287 5.0896893 5.8264008 8.026146c0.35159302 0.7341118 0.6655197 1.4804726 0.93862915 2.236023c0.06828308 0.18888855 0.13400269 0.3783493 0.19713593 0.5683365c0.031562805 0.094997406 0.06248474 0.19012451 0.09273529 0.2853737l0.056983948 0.1836319" fill-rule="evenodd"/><path fill="#000000" stroke="#000000" stroke-width="1.0" stroke-linecap="butt" d="m85.5669 35.792984l2.3312683 4.229389l0.93273926 -4.738415z" fill-rule="evenodd"/><path fill="#000000" fill-opacity="0.0" d="m43.39771 9.080989l38.01575 0l0 42.015747l-38.01575 0z" fill-rule="evenodd"/><path fill="#000000" d="m63.609066 23.047861l-2.59375 8.953127l1.046875 -0.8750019q1.703125 -1.453125 2.2031212 -2.140625q0.171875 -0.21875 0.171875 -0.34375q0 -0.078125 -0.0625 -0.15625q-0.046875 -0.078125 -0.21875 -0.109375q-0.15624619 -0.046875 -0.5468712 -0.046875l-0.328125 0l0.109375 -0.359375l3.9687462 0l-0.078125 0.359375q-0.6875 0.03125 -1.1875 0.21875q-0.5 0.171875 -0.953125 0.515625q-0.921875 0.671875 -1.2187462 0.9375l-0.78125 0.703125q0.203125 0.65625 0.484375 1.8281269q0.4999962 1.953125 0.6718712 2.3125q0.171875 0.359375 0.359375 0.359375q0.15625 0 0.359375 -0.15625q0.46875 -0.34375 1.015625 -1.09375l0.3125 0.21875q-0.984375 1.25 -1.515625 1.65625q-0.53125 0.390625 -0.9687462 0.390625q-0.390625 0 -0.59375 -0.296875q-0.359375 -0.546875 -1.203125 -4.234377l-1.25 1.0781269l-0.9375 3.234375l-1.421875 0l3.015625 -10.390627l0.265625 -0.890625q0.03125 -0.21875 0.03125 -0.390625q0 -0.21875 -0.171875 -0.359375q-0.15625 -0.15625 -0.484375 -0.15625q-0.203125 0 -0.65625 0.09375l0 -0.328125l3.15625 -0.53125z" fill-rule="nonzero"/><path fill="#000000" fill-opacity="0.0" d="m293.89508 41.403824c0 -12.5 -12.858276 -25.007875 -25.716522 -25.0c-12.858276 0.007873535 -25.716553 12.531496 -25.716553 25.062992" fill-rule="evenodd"/><path stroke="#000000" stroke-width="1.0" stroke-linejoin="round" stroke-linecap="butt" d="m293.89508 41.403824c0 -12.500002 -12.858276 -25.007874 -25.716553 -25.0c-6.4291077 0.0039367676 -12.858261 3.1368103 -17.6801 7.8351364c-2.4109344 2.349163 -4.420044 5.0896893 -5.826416 8.026146c-0.35159302 0.7341118 -0.6655121 1.4804726 -0.93862915 2.236023c-0.06826782 0.18888855 -0.13398743 0.3783493 -0.1971283 0.5683365c-0.031555176 0.094997406 -0.06248474 0.19012451 -0.09272766 0.2853737l-0.057006836 0.1836319" fill-rule="evenodd"/><path fill="#000000" stroke="#000000" stroke-width="1.0" stroke-linecap="butt" d="m241.75452 35.28396l0.9327545 4.738415l2.3312683 -4.229389z" fill-rule="evenodd"/><path fill="#000000" fill-opacity="0.0" d="m286.02106 49.27784c-20.154877 0 -38.14737 7.9631653 -40.309753 16.501495c-2.162384 8.53833 11.505341 17.651825 24.091888 16.501495c12.586548 -1.1503296 24.091888 -12.564484 24.091888 -25.128975" fill-rule="evenodd"/><path stroke="#000000" stroke-width="1.0" stroke-linejoin="round" stroke-linecap="butt" d="m286.02106 49.27784c-20.154877 0 -38.14737 7.9631653 -40.309753 16.501495c-2.162384 8.53833 11.505341 17.651833 24.091888 16.501495c6.293274 -0.5751648 12.316254 -3.7162933 16.7659 -8.28418c2.224823 -2.2839432 4.056305 -4.9245834 5.331604 -7.779518c0.31884766 -0.71372986 0.6029053 -1.4408569 0.8496399 -2.1791534c0.061706543 -0.18457031 0.121032715 -0.36984253 0.17800903 -0.5557785l0.11450195 -0.39117813" fill-rule="evenodd"/><path fill="#000000" stroke="#000000" stroke-width="1.0" stroke-linecap="butt" d="m294.67783 63.325634l-0.99038696 -4.726696l-2.279602 4.257473z" fill-rule="evenodd"/><path fill="#000000" fill-opacity="0.0" d="m293.89508 41.403824c0 -12.5 12.858276 -25.007875 25.716553 -25.0c12.858246 0.007873535 25.716522 12.531496 25.716522 25.062992" fill-rule="evenodd"/><path stroke="#000000" stroke-width="1.0" stroke-linejoin="round" stroke-linecap="butt" d="m293.89508 41.403824c0 -12.500002 12.858276 -25.007874 25.716522 -25.0c6.429138 0.0039367676 12.858276 3.1368103 17.680145 7.8351364c2.4109192 2.349163 4.420044 5.0896893 5.826416 8.026146c0.3515625 0.7341118 0.6654968 1.4804726 0.93859863 2.236023c0.06826782 0.18888855 0.1340332 0.3783493 0.19714355 0.5683365c0.031555176 0.094997406 0.0625 0.19012451 0.09274292 0.2853737l0.05697632 0.1836319" fill-rule="evenodd"/><path fill="#000000" stroke="#000000" stroke-width="1.0" stroke-linecap="butt" d="m342.77164 35.792984l2.3312683 4.229389l0.93273926 -4.738415z" fill-rule="evenodd"/><path fill="#000000" fill-opacity="0.0" d="m246.10498 44.755905l49.7323 0l0 42.015747l-49.7323 0z" fill-rule="evenodd"/><path fill="#000000" d="m264.58936 67.5509l-9.640625 0l0 -0.671875l9.640625 0l0 0.671875zm6.28125 4.125l-6.140625 0l0 -0.34375q4.6875 -4.109375 6.203125 -6.453125q0.703125 -1.078125 0.703125 -2.28125q0 -0.9375 -0.578125 -1.53125q-0.578125 -0.609375 -1.515625 -0.609375q-1.28125 0 -2.109375 1.234375l-0.328125 -0.140625q0.46875 -1.1875 1.359375 -1.828125q0.890625 -0.65625 1.9375 -0.65625q1.171875 0 1.96875 0.8125q0.8125 0.796875 0.8125 1.953125q0 0.796875 -0.28125 1.484375q-0.4375 1.0625 -1.625 2.390625q-1.78125 2.015625 -4.75 4.640625l3.09375 0q0.75 0 1.21875 -0.296875q0.484375 -0.3125 0.703125 -0.828125l0.359375 0l-1.03125 2.453125zm8.234375 -12.953125l-2.59375 8.953125l1.046875 -0.875q1.703125 -1.453125 2.203125 -2.140625q0.171875 -0.21875 0.171875 -0.34375q0 -0.078125 -0.0625 -0.15625q-0.046875 -0.078125 -0.21875 -0.109375q-0.15625 -0.046875 -0.546875 -0.046875l-0.328125 0l0.109375 -0.359375l3.96875 0l-0.078125 0.359375q-0.6875 0.03125 -1.1875 0.21875q-0.5 0.171875 -0.953125 0.515625q-0.921875 0.671875 -1.21875 0.9375l-0.78125 0.703125q0.203125 0.65625 0.484375 1.828125q0.5 1.953125 0.671875 2.3125q0.171875 0.359375 0.359375 0.359375q0.15625 0 0.359375 -0.15625q0.46875 -0.34375 1.015625 -1.09375l0.3125 0.21875q-0.984375 1.25 -1.515625 1.65625q-0.53125 0.390625 -0.96875 0.390625q-0.390625 0 -0.59375 -0.296875q-0.359375 -0.546875 -1.203125 -4.234375l-1.25 1.078125l-0.9375 3.234375l-1.421875 0l3.015625 -10.390625l0.265625 -0.890625q0.03125 -0.21875 0.03125 -0.390625q0 -0.21875 -0.171875 -0.359375q-0.15625 -0.15625 -0.484375 -0.15625q-0.203125 0 -0.65625 0.09375l0 -0.328125l3.15625 -0.53125z" fill-rule="nonzero"/><path fill="#000000" fill-opacity="0.0" d="m249.16542 7.9274454l38.015762 0l0 42.01575l-38.015762 0z" fill-rule="evenodd"/><path fill="#000000" d="m269.37677 21.894318l-2.59375 8.953125l1.046875 -0.875q1.703125 -1.453125 2.203125 -2.140625q0.171875 -0.21875 0.171875 -0.34375q0 -0.078125 -0.0625 -0.15625q-0.046875 -0.078125 -0.21875 -0.109375q-0.15625 -0.046875 -0.546875 -0.046875l-0.328125 0l0.109375 -0.359375l3.96875 0l-0.078125 0.359375q-0.6875 0.03125 -1.1875 0.21875q-0.5 0.171875 -0.953125 0.515625q-0.921875 0.671875 -1.21875 0.9375l-0.78125 0.703125q0.203125 0.65625 0.484375 1.828125q0.5 1.953125 0.671875 2.3125q0.171875 0.359375 0.359375 0.359375q0.15625 0 0.359375 -0.15625q0.46875 -0.34375 1.015625 -1.09375l0.3125 0.21875q-0.984375 1.25 -1.515625 1.65625q-0.53125 0.390625 -0.96875 0.390625q-0.390625 0 -0.59375 -0.296875q-0.359375 -0.546875 -1.203125 -4.234375l-1.25 1.078125l-0.9375 3.234375l-1.421875 0l3.015625 -10.390625l0.265625 -0.890625q0.03125 -0.21875 0.03125 -0.390625q0 -0.21875 -0.171875 -0.359375q-0.15625 -0.15625 -0.484375 -0.15625q-0.203125 0 -0.65625 0.09375l0 -0.328125l3.15625 -0.53125z" fill-rule="nonzero"/><path fill="#000000" fill-opacity="0.0" d="m300.60638 9.080989l38.015747 0l0 42.015747l-38.015747 0z" fill-rule="evenodd"/><path fill="#000000" d="m320.81772 23.047861l-2.59375 8.953127l1.046875 -0.8750019q1.703125 -1.453125 2.203125 -2.140625q0.171875 -0.21875 0.171875 -0.34375q0 -0.078125 -0.0625 -0.15625q-0.046875 -0.078125 -0.21875 -0.109375q-0.15625 -0.046875 -0.546875 -0.046875l-0.328125 0l0.109375 -0.359375l3.96875 0l-0.078125 0.359375q-0.6875 0.03125 -1.1875 0.21875q-0.5 0.171875 -0.953125 0.515625q-0.921875 0.671875 -1.21875 0.9375l-0.78125 0.703125q0.203125 0.65625 0.484375 1.8281269q0.5 1.953125 0.671875 2.3125q0.171875 0.359375 0.359375 0.359375q0.15625 0 0.359375 -0.15625q0.46875 -0.34375 1.015625 -1.09375l0.3125 0.21875q-0.984375 1.25 -1.515625 1.65625q-0.53125 0.390625 -0.96875 0.390625q-0.390625 0 -0.59375 -0.296875q-0.359375 -0.546875 -1.203125 -4.234377l-1.25 1.0781269l-0.9375 3.234375l-1.421875 0l3.015625 -10.390627l0.265625 -0.890625q0.03125 -0.21875 0.03125 -0.390625q0 -0.21875 -0.171875 -0.359375q-0.15625 -0.15625 -0.484375 -0.15625q-0.203125 0 -0.65625 0.09375l0 -0.328125l3.15625 -0.53125z" fill-rule="nonzero"/><path fill="#000000" fill-opacity="0.0" d="m558.9738 49.27784c12.5 0 23.858276 7.933071 25.0 16.437004c1.1417236 8.503937 -7.9330444 17.578743 -16.437012 16.437012c-8.503906 -1.1417313 -16.437012 -12.5 -16.437012 -25.0" fill-rule="evenodd"/><path stroke="#000000" stroke-width="1.0" stroke-linejoin="round" stroke-linecap="butt" d="m558.9738 49.27784c12.5 0 23.858276 7.933071 25.0 16.437012c1.1417236 8.503937 -7.9330444 17.578735 -16.437012 16.437004c-4.251953 -0.5708618 -8.361206 -3.6958618 -11.407471 -8.240646c-1.5231323 -2.2723923 -2.7805176 -4.8997345 -3.6571045 -7.740219c-0.21917725 -0.71012115 -0.41448975 -1.4335709 -0.5842285 -2.1681213c-0.042419434 -0.18363953 -0.08331299 -0.3679695 -0.12249756 -0.55295944l-0.06640625 -0.32805634" fill-rule="evenodd"/><path fill="#000000" stroke="#000000" stroke-width="1.0" stroke-linecap="butt" d="m553.3426 62.956882l-2.0967407 -4.3504333l-1.1902466 4.680378z" fill-rule="evenodd"/><path fill="#000000" fill-opacity="0.0" d="m548.57477 44.755905l38.015747 0l0 42.015747l-38.015747 0z" fill-rule="evenodd"/><path fill="#000000" d="m567.05914 67.5509l-9.640625 0l0 -0.671875l9.640625 0l0 0.671875zm5.1875 -8.828125l-2.59375 8.953125l1.046875 -0.875q1.703125 -1.453125 2.203125 -2.140625q0.171875 -0.21875 0.171875 -0.34375q0 -0.078125 -0.0625 -0.15625q-0.046875 -0.078125 -0.21875 -0.109375q-0.15625 -0.046875 -0.546875 -0.046875l-0.328125 0l0.109375 -0.359375l3.96875 0l-0.078125 0.359375q-0.6875 0.03125 -1.1875 0.21875q-0.5 0.171875 -0.953125 0.515625q-0.921875 0.671875 -1.21875 0.9375l-0.78125 0.703125q0.203125 0.65625 0.484375 1.828125q0.5 1.953125 0.671875 2.3125q0.171875 0.359375 0.359375 0.359375q0.15625 0 0.359375 -0.15625q0.46875 -0.34375 1.015625 -1.09375l0.3125 0.21875q-0.984375 1.25 -1.515625 1.65625q-0.53125 0.390625 -0.96875 0.390625q-0.390625 0 -0.59375 -0.296875q-0.359375 -0.546875 -1.203125 -4.234375l-1.25 1.078125l-0.9375 3.234375l-1.421875 0l3.015625 -10.390625l0.265625 -0.890625q0.03125 -0.21875 0.03125 -0.390625q0 -0.21875 -0.171875 -0.359375q-0.15625 -0.15625 -0.484375 -0.15625q-0.203125 0 -0.65625 0.09375l0 -0.328125l3.15625 -0.53125z" fill-rule="nonzero"/><path fill="#000000" fill-opacity="0.0" d="m551.0998 41.403824c0 -12.5 -12.858276 -25.007875 -25.716492 -25.0c-12.858276 0.007873535 -25.716553 12.531496 -25.716553 25.062992" fill-rule="evenodd"/><path stroke="#000000" stroke-width="1.0" stroke-linejoin="round" stroke-linecap="butt" d="m551.0998 41.403824c0 -12.500002 -12.858215 -25.007874 -25.716492 -25.0c-6.429138 0.0039367676 -12.858276 3.1368103 -17.680145 7.8351364c-2.4109192 2.349163 -4.4200134 5.0896893 -5.8263855 8.026146c-0.35159302 0.7341118 -0.66552734 1.4804726 -0.93865967 2.236023c-0.068237305 0.18888855 -0.13397217 0.3783493 -0.19708252 0.5683365c-0.031585693 0.094997406 -0.0625 0.19012451 -0.09277344 0.2853737l-0.05697632 0.1836319" fill-rule="evenodd"/><path fill="#000000" stroke="#000000" stroke-width="1.0" stroke-linecap="butt" d="m498.95926 35.28396l0.93273926 4.738415l2.3312683 -4.229389z" fill-rule="evenodd"/><path fill="#000000" fill-opacity="0.0" d="m506.37146 9.080989l38.015747 0l0 42.015747l-38.015747 0z" fill-rule="evenodd"/><path fill="#000000" d="m526.5828 23.047861l-2.59375 8.953127l1.046875 -0.8750019q1.703125 -1.453125 2.203125 -2.140625q0.171875 -0.21875 0.171875 -0.34375q0 -0.078125 -0.0625 -0.15625q-0.046875 -0.078125 -0.21875 -0.109375q-0.15625 -0.046875 -0.546875 -0.046875l-0.328125 0l0.109375 -0.359375l3.96875 0l-0.078125 0.359375q-0.6875 0.03125 -1.1875 0.21875q-0.5 0.171875 -0.953125 0.515625q-0.921875 0.671875 -1.21875 0.9375l-0.78125 0.703125q0.203125 0.65625 0.484375 1.8281269q0.5 1.953125 0.671875 2.3125q0.171875 0.359375 0.359375 0.359375q0.15625 0 0.359375 -0.15625q0.46875 -0.34375 1.015625 -1.09375l0.3125 0.21875q-0.984375 1.25 -1.515625 1.65625q-0.53125 0.390625 -0.96875 0.390625q-0.390625 0 -0.59375 -0.296875q-0.359375 -0.546875 -1.203125 -4.234377l-1.25 1.0781269l-0.9375 3.234375l-1.421875 0l3.015625 -10.390627l0.265625 -0.890625q0.03125 -0.21875 0.03125 -0.390625q0 -0.21875 -0.171875 -0.359375q-0.15625 -0.15625 -0.484375 -0.15625q-0.203125 0 -0.65625 0.09375l0 -0.328125l3.15625 -0.53125z" fill-rule="nonzero"/></g></svg>